<svg xmlns="http://www.w3.org/2000/svg" viewBox="0 0 24 24" fill="#43E55E">
  <path d="M13.5 2c-.178 0-.356.021-.526.063C12.406.882 11.218 0 9.857 0 8.11 0 6.695 1.394 6.695 3.11c0 .183.022.363.054.54-.575.227-1.06.624-1.393 1.136-.332.511-.505 1.104-.505 1.71 0 .828.313 1.627.879 2.246.566.62 1.346 1.025 2.192 1.138l.013.002c.29.039.586.059.885.059 1.747 0 3.162-1.394 3.162-3.11 0-.183-.022-.363-.054-.54.575-.227 1.06-.624 1.393-1.136.332-.511.505-1.104.505-1.71 0-.828-.313-1.627-.879-2.246C12.381 1.58 11.601 1.175 10.755 1.062l-.013-.002C10.452.021 10.178 0 9.857 0c-1.747 0-3.162 1.394-3.162 3.11 0 .828.313 1.627.879 2.246.566.62 1.346 1.025 2.192 1.138l.013.002c.29.039.586.059.885.059.178 0 .356-.021.526-.063.568 1.181 1.756 2.063 3.117 2.063 1.747 0 3.162-1.394 3.162-3.11 0-.828-.313-1.627-.879-2.246-.566-.62-1.346-1.025-2.192-1.138l-.013-.002C13.796.021 13.678 0 13.5 0zm-3.643 15.31c-1.747 0-3.162 1.394-3.162 3.11 0 .828.313 1.627.879 2.246.566.62 1.346 1.025 2.192 1.138l.013.002c.29.039.586.059.885.059.178 0 .356-.021.526-.063.568 1.181 1.756 2.063 3.117 2.063 1.747 0 3.162-1.394 3.162-3.11 0-.828-.313-1.627-.879-2.246-.566-.62-1.346-1.025-2.192-1.138l-.013-.002c-.29-.039-.586-.059-.885-.059-.178 0-.356.021-.526.063-.568-1.181-1.756-2.063-3.117-2.063z"/>
</svg>